<?xml version="1.0" encoding="UTF-8"?>
<svg id="Layer_2" data-name="Layer 2" xmlns="http://www.w3.org/2000/svg" viewBox="0 0 415.79 211.91">
  <defs>
    <style>
      .cls-1 {
        fill: #0a98cc;
      }

      .cls-1, .cls-2, .cls-3, .cls-4, .cls-5, .cls-6, .cls-7, .cls-8, .cls-9 {
        stroke-width: 0px;
      }

      .cls-2 {
        fill: #231f20;
      }

      .cls-3 {
        fill: #28a44a;
      }

      .cls-4 {
        fill: #f15a41;
      }

      .cls-10 {
        isolation: isolate;
      }

      .cls-5 {
        fill: #010101;
      }

      .cls-6 {
        fill: #e5e5e6;
      }

      .cls-7 {
        fill: #5c5d5d;
      }

      .cls-8 {
        fill: #fff;
      }

      .cls-9 {
        fill: #403b3c;
      }
    </style>
  </defs>
  <g id="Layer_1-2" data-name="Layer 1">
    <path class="cls-9" d="M94.99,31.15c-2.49-3.5-10.23.33-13.1,1.56-4.39,1.87-8.56,4.26-12.67,6.68-1.61.95-4.55-.69-2.93-1.65,5.06-2.98,11.53-6.61,17-8.76,4.12-1.62,10.95-3.89,14.12.56,1.1,1.53-1.34,3.14-2.44,1.61h0Z"/>
    <path class="cls-1" d="M87.53,78.9c-12.54,11.06-14.21,29.92-4.17,42.98l19.8-17.45,7.73-6.82,19.8-17.45c-11.7-11.61-30.63-12.32-43.17-1.26Z"/>
    <path class="cls-1" d="M138.91,72.91l20.48,20.46-2.44,1.83-20.45-20.18h-.01c-14.53-14.78-38.34-15.79-54.08-1.91-15.73,13.87-17.71,37.62-4.86,53.89l-18.78,16.56,45.9,68.34H36.13S59.17,37.2,59.17,37.2h25.05C85.33,16.5,102.52,0,123.5,0s38.17,16.5,39.29,37.2h25.04s7.4,56.09,7.4,56.09l-39.95-34.82-16.37,14.43ZM155.05,37.2c-1.1-16.45-14.83-29.49-31.55-29.49s-30.44,13.04-31.55,29.49h36.71s26.39,0,26.39,0Z"/>
    <path class="cls-1" d="M106.34,140.33l-20.58-20.56-2.4,2.11,20.54,20.28,2.44-1.83Z"/>
    <g>
      <path class="cls-3" d="M74.39,66.24c1-.61,1.73-2.07,1.61-3.24l-2.07-20.91c-.12-1.17-1.02-2.64-2-3.28l-17.66-11.38c-.99-.64-2.61-.66-3.61-.04L1.02,57.78c-1,.61-1.32,1.93-.71,2.93l9.65,15.78c.61,1,1.61,2.64,2.22,3.64l9.64,15.78c.61,1,1.93,1.32,2.93.71l49.63-30.39Z"/>
      <path class="cls-2" d="M15.38,55.26l-7.46,4.57c-.76.47-1,1.47-.54,2.23l7.34,12.01c.47.76,1.23,2.01,1.69,2.77l7.34,12c.46.76,1.47,1,2.23.54l7.27-4.46-17.87-29.67Z"/>
      <path class="cls-8" d="M61.9,67.36c.76-.46,1.66-1.74,1.23-2.46-.44-.73-15.96-26.09-16.53-27.05-.58-.96-1.99-.5-2.75-.03l-28.46,17.44,17.87,29.67,28.65-17.56Z"/>
      <path class="cls-2" d="M62.53,41.75c2.24-1.37,5.11-.73,6.43,1.42,1.31,2.15.57,5-1.67,6.37-2.24,1.37-5.12.73-6.43-1.42-1.31-2.15-.57-5,1.67-6.37Z"/>
      <path class="cls-6" d="M63.47,43.29c1.35-.82,3.09-.44,3.88.85.79,1.3.34,3.02-1.01,3.85-1.35.82-3.09.44-3.88-.86-.79-1.3-.34-3.02,1.01-3.84Z"/>
      <path class="cls-9" d="M64.85,44.76c6.45,1.91,11.58-.38,17.34-3.12,4.27-2.03,13.19-4.98,12.56-10.96-.2-1.88,2.72-2.07,2.92-.2.71,6.74-6.84,10.35-11.95,12.73-7.05,3.28-13.48,6.76-21.4,4.42-1.79-.53-1.26-3.4.54-2.87h0Z"/>
    </g>
    <g>
      <rect class="cls-8" x="24.2" y="44.96" width="31.61" height="31.61" transform="translate(-25.83 29.81) rotate(-31.46)"/>
      <path class="cls-5" d="M51.89,57.9c-.06-.1-.03-.23.07-.3l-.18.11.11.18Z"/>
      <path class="cls-5" d="M51.44,56.74l.5-.3c.1-.06.23-.03.3.07l.3.5c.06.1.03.23-.07.3h0s-.68.42-.68.42l-.53-.86.18-.11Z"/>
      <path class="cls-5" d="M49.25,53.58c-.06-.1-.03-.23.07-.3l-.18.11.11.18Z"/>
      <path class="cls-5" d="M48.8,52.43l.5-.3c.1-.06.23-.03.3.07l.3.5c.06.1.03.23-.07.3h0s-.68.42-.68.42l-.53-.86.18-.11Z"/>
      <rect class="cls-5" x="47.75" y="50.47" width="1.01" height="1.01" rx=".21" ry=".21" transform="translate(-19.51 32.67) rotate(-31.46)"/>
      <path class="cls-5" d="M51.89,57.9l.3.5c.06.1.03.23-.07.3h0s-.5.3-.5.3c-.1.06-.23.03-.3-.07l-.42-.68.86-.53.11.18Z"/>
      <rect class="cls-5" x="50.58" y="57.04" width="1.01" height="1.01" transform="translate(-22.52 35.12) rotate(-31.46)"/>
      <path class="cls-5" d="M49.97,56.7c-.06-.1-.03-.23.07-.3l-.18.11.11.18Z"/>
      <path class="cls-5" d="M50.28,57.2c.06.1.19.13.3.07l-.18.11-.11-.18Z"/>
      <path class="cls-5" d="M50.61,55.81c.06.1.03.23-.07.3h0s-.68.42-.68.42l-.53-.86.86-.53.42.68Z"/>
      <rect class="cls-5" x="49" y="54.45" width="1.01" height="1.01" transform="translate(-21.41 33.91) rotate(-31.46)"/>
      <rect class="cls-5" x="48.47" y="53.59" width="1.01" height="1.01" transform="translate(-21.03 33.51) rotate(-31.46)"/>
      <path class="cls-5" d="M47.93,52.95c-.1.06-.13.19-.07.3l.42.68.86-.53-.53-.86-.68.42Z"/>
      <path class="cls-5" d="M50.73,58.36l.18-.11.11.18c-.06-.1-.19-.13-.3-.07Z"/>
      <path class="cls-5" d="M50.17,58.96c-.06-.1-.03-.23.07-.3l-.18.11.11.18Z"/>
      <rect class="cls-5" x="49.72" y="57.57" width="1.01" height="1.01" transform="translate(-22.93 34.74) rotate(-31.46)"/>
      <rect class="cls-5" x="49.19" y="56.71" width="1.01" height="1.01" transform="translate(-22.55 34.34) rotate(-31.46)"/>
      <rect class="cls-5" x="48.66" y="55.84" width="1.01" height="1.01" transform="translate(-22.18 33.94) rotate(-31.46)"/>
      <path class="cls-5" d="M49.22,55.47l.11.18-.18.11c.1-.06.13-.19.07-.3h0Z"/>
      <path class="cls-5" d="M50.17,58.96l.3.5c.06.1.03.23-.07.3h0s-.5.3-.5.3c-.1.06-.23.03-.3-.07l-.42-.68.86-.53.11.18Z"/>
      <path class="cls-5" d="M48.85,58.32c-.1.06-.13.19-.07.3l.42.68.86-.53-.53-.86-.68.42Z"/>
      <path class="cls-5" d="M49.41,57.73l.11.18-.18.11c.1-.06.13-.19.07-.3h0Z"/>
      <path class="cls-5" d="M48.82,57.16l.18-.11.11.18c-.06-.1-.19-.13-.3-.07Z"/>
      <path class="cls-5" d="M48.32,57.46c-.1.06-.23.03-.3-.07l-.3-.5c-.06-.1-.03-.23.07-.3l.68-.42.53.86-.68.42Z"/>
      <rect class="cls-5" x="46.74" y="54.65" width="1.01" height="1.01" rx=".21" ry=".21" transform="translate(-21.84 32.76) rotate(-31.46)"/>
      <path class="cls-5" d="M46.78,53.41c.06.1.03.23-.07.3h0s-.68.42-.68.42l-.53-.86.86-.53.42.68Z"/>
      <path class="cls-5" d="M45.94,52.05c-.06-.1-.19-.13-.3-.07l-.68.42.53.86.86-.53-.42-.68Z"/>
      <path class="cls-5" d="M47.46,57.99l.5-.3c.1-.06.23-.03.3.07l.3.5c.06.1.03.23-.07.3h0s-.68.42-.68.42l-.53-.86.18-.11Z"/>
      <rect class="cls-5" x="46.41" y="56.04" width="1.01" height="1.01" rx=".21" ry=".21" transform="translate(-22.61 32.79) rotate(-31.46)"/>
      <path class="cls-5" d="M45.27,54.83c-.06-.1-.03-.23.07-.3l-.18.11.11.18Z"/>
      <rect class="cls-5" x="44.82" y="53.45" width="1.01" height="1.01" transform="translate(-21.49 31.58) rotate(-31.46)"/>
      <path class="cls-5" d="M44.29,52.81c-.1.06-.13.19-.07.3l.42.68.86-.53-.53-.86-.68.42Z"/>
      <path class="cls-5" d="M47.65,60.24l.5-.3c.1-.06.23-.03.3.07l.3.5c.06.1.03.23-.07.3h0s-.68.42-.68.42l-.53-.86.18-.11Z"/>
      <rect class="cls-5" x="46.6" y="58.29" width="1.01" height="1.01" transform="translate(-23.76 33.22) rotate(-31.46)"/>
      <path class="cls-5" d="M45.8,55.7l.3.5c.06.1.03.23-.07.3h0s-.5.3-.5.3c-.1.06-.23.03-.3-.07l-.42-.68.86-.53.11.18Z"/>
      <rect class="cls-5" x="44.49" y="54.84" width="1.01" height="1.01" transform="translate(-22.27 31.61) rotate(-31.46)"/>
      <path class="cls-5" d="M43.95,54.2c-.1.06-.13.19-.07.3l.42.68.86-.53-.53-.86-.68.42Z"/>
      <path class="cls-5" d="M44.52,53.6l.11.18-.18.11c.1-.06.13-.19.07-.3h0Z"/>
      <path class="cls-5" d="M47.31,61.63c-.1.06-.23.03-.3-.07l-.3-.5c-.06-.1-.03-.23.07-.3l.68-.42.53.86-.68.42Z"/>
      <path class="cls-5" d="M46.26,59.91c-.1.06-.23.03-.3-.07l-.3-.5c-.06-.1-.03-.23.07-.3l.68-.42.53.86-.68.42Z"/>
      <path class="cls-5" d="M44.67,57.32l.5-.3c.1-.06.23-.03.3.07l.3.5c.06.1.03.23-.07.3h0s-.68.42-.68.42l-.53-.86.18-.11Z"/>
      <path class="cls-5" d="M44.64,56.15l.18-.11.11.18c-.06-.1-.19-.13-.3-.07Z"/>
      <path class="cls-5" d="M44.15,56.46c-.1.06-.23.03-.3-.07l-.3-.5c-.06-.1-.03-.23.07-.3l.68-.42.53.86-.68.42Z"/>
      <path class="cls-5" d="M44.19,54.99l.11.18-.18.11c.1-.06.13-.19.07-.3h0Z"/>
      <path class="cls-5" d="M42.56,53.87l.5-.3c.1-.06.23-.03.3.07l.3.5c.06.1.03.23-.07.3h0s-.68.42-.68.42l-.53-.86.18-.11Z"/>
      <rect class="cls-5" x="43.82" y="57.62" width="1.01" height="1.01" transform="translate(-23.82 31.67) rotate(-31.46)"/>
      <path class="cls-5" d="M43.52,57.78c.06.1.19.13.3.07l-.18.11-.11-.18Z"/>
      <path class="cls-5" d="M42.23,55.26c-.1.06-.23.03-.3-.07l-.3-.5c-.06-.1-.03-.23.07-.3l.68-.42.53.86-.68.42Z"/>
      <path class="cls-5" d="M50.08,68.5l.3.5c.06.1.03.23-.07.3h0s-.5.3-.5.3c-.1.06-.23.03-.3-.07l-.42-.68.86-.53.11.18Z"/>
      <rect class="cls-5" x="48.76" y="67.64" width="1.01" height="1.01" transform="translate(-28.32 35.72) rotate(-31.46)"/>
      <rect class="cls-5" x="48.23" y="66.78" width="1.01" height="1.01" transform="translate(-27.95 35.32) rotate(-31.46)"/>
      <rect class="cls-5" x="47.71" y="65.92" width="1.01" height="1.01" transform="translate(-27.58 34.92) rotate(-31.46)"/>
      <path class="cls-5" d="M47.4,66.07l-.3-.5c-.06-.1-.03-.23.07-.3l.5-.3c.1-.06.23-.03.3.07l.42.68-.86.53-.11-.18Z"/>
      <path class="cls-5" d="M46.91,63.32l.3.5c.06.1.03.23-.07.3h0s-.5.3-.5.3c-.1.06-.23.03-.3-.07l-.42-.68.86-.53.11.18Z"/>
      <rect class="cls-5" x="45.59" y="62.46" width="1.01" height="1.01" transform="translate(-26.09 33.31) rotate(-31.46)"/>
      <rect class="cls-5" x="45.07" y="61.6" width="1.01" height="1.01" transform="translate(-25.71 32.91) rotate(-31.46)"/>
      <rect class="cls-5" x="44.54" y="60.74" width="1.01" height="1.01" transform="translate(-25.34 32.51) rotate(-31.46)"/>
      <path class="cls-5" d="M44.24,60.89l-.3-.5c-.06-.1-.03-.23.07-.3l.5-.3c.1-.06.23-.03.3.07l.42.68-.86.53-.11-.18Z"/>
      <path class="cls-5" d="M43.48,59.24c-.1.06-.23.03-.3-.07l-.42-.68.86-.53.53.86-.68.42Z"/>
      <rect class="cls-5" x="42.43" y="57.29" width="1.01" height="1.01" transform="translate(-23.85 30.9) rotate(-31.46)"/>
      <rect class="cls-5" x="41.9" y="56.42" width="1.01" height="1.01" transform="translate(-23.48 30.49) rotate(-31.46)"/>
      <path class="cls-5" d="M42.16,55.55c-.06-.1-.19-.13-.3-.07l-.68.42.53.86.86-.53-.42-.68Z"/>
      <path class="cls-5" d="M40.77,55.22c-.06-.1-.03-.23.07-.3l-.18.11.11.18Z"/>
      <path class="cls-5" d="M41.07,55.72c.06.1.19.13.3.07l-.18.11-.11-.18Z"/>
      <path class="cls-5" d="M40.31,54.06l.5-.3c.1-.06.23-.03.3.07l.3.5c.06.1.03.23-.07.3h0s-.68.42-.68.42l-.53-.86.18-.11Z"/>
      <path class="cls-5" d="M39.25,52.33l.5-.3c.1-.06.23-.03.3.07l.3.5c.06.1.03.23-.07.3h0s-.68.42-.68.42l-.53-.86.18-.11Z"/>
      <path class="cls-5" d="M38.96,52.26c.06.1.19.13.3.07l-.18.11-.11-.18Z"/>
      <rect class="cls-5" x="38.2" y="50.38" width="1.01" height="1.01" rx=".21" ry=".21" transform="translate(-20.87 27.68) rotate(-31.46)"/>
      <rect class="cls-5" x="37.15" y="48.66" width="1.01" height="1.01" rx=".21" ry=".21" transform="translate(-20.12 26.87) rotate(-31.46)"/>
      <path class="cls-5" d="M48.39,68.09l.18-.11.11.18c-.06-.1-.19-.13-.3-.07Z"/>
      <path class="cls-5" d="M47.89,68.4c-.1.06-.23.03-.3-.07l-.3-.5c-.06-.1-.03-.23.07-.3l.68-.42.53.86-.68.42Z"/>
      <path class="cls-5" d="M47.93,66.93l.11.18-.18.11c.1-.06.13-.19.07-.3h0Z"/>
      <path class="cls-5" d="M46.24,66.1c-.06-.1-.03-.23.07-.3l-.18.11.11.18Z"/>
      <path class="cls-5" d="M45.78,64.94l.5-.3c.1-.06.23-.03.3.07l.3.5c.06.1.03.23-.07.3h0s-.68.42-.68.42l-.53-.86.18-.11Z"/>
      <path class="cls-5" d="M45.75,63.78l.18-.11.11.18c-.06-.1-.19-.13-.3-.07Z"/>
      <path class="cls-5" d="M45.18,64.38c-.06-.1-.03-.23.07-.3l-.18.11.11.18Z"/>
      <path class="cls-5" d="M45.49,64.87c.06.1.19.13.3.07l-.18.11-.11-.18Z"/>
      <rect class="cls-5" x="44.73" y="62.99" width="1.01" height="1.01" transform="translate(-26.49 32.94) rotate(-31.46)"/>
      <rect class="cls-5" x="44.2" y="62.13" width="1.01" height="1.01" transform="translate(-26.11 32.54) rotate(-31.46)"/>
      <rect class="cls-5" x="43.68" y="61.27" width="1.01" height="1.01" transform="translate(-25.74 32.13) rotate(-31.46)"/>
      <path class="cls-5" d="M44.24,60.89l.11.18-.18.11c.1-.06.13-.19.07-.3h0Z"/>
      <path class="cls-5" d="M41.53,56.87l.18-.11.11.18c-.06-.1-.19-.13-.3-.07Z"/>
      <rect class="cls-5" x="40.51" y="56.09" width="1.01" height="1.01" transform="translate(-23.51 29.72) rotate(-31.46)"/>
      <rect class="cls-5" x="39.98" y="55.23" width="1.01" height="1.01" transform="translate(-23.13 29.32) rotate(-31.46)"/>
      <rect class="cls-5" x="39.45" y="54.36" width="1.01" height="1.01" transform="translate(-22.76 28.92) rotate(-31.46)"/>
      <path class="cls-5" d="M39.15,54.52c.06.1.19.13.3.07l-.18.11-.11-.18Z"/>
      <path class="cls-5" d="M38.92,53.73c-.1.06-.23.03-.3-.07l-.42-.68.86-.53.53.86-.68.42Z"/>
      <path class="cls-5" d="M38.65,51.77c-.06-.1-.19-.13-.3-.07l-.68.42.53.86.86-.53-.42-.68Z"/>
      <rect class="cls-5" x="35.76" y="48.32" width="1.01" height="1.01" rx=".21" ry=".21" transform="translate(-20.15 26.1) rotate(-31.46)"/>
      <path class="cls-5" d="M47.56,69.79l.5-.3c.1-.06.23-.03.3.07l.3.5c.06.1.03.23-.07.3h0s-.68.42-.68.42l-.53-.86.18-.11Z"/>
      <path class="cls-5" d="M47.26,69.72c.06.1.19.13.3.07l-.18.11-.11-.18Z"/>
      <path class="cls-5" d="M46.43,68.36c-.06-.1-.03-.23.07-.3l-.18.11.11.18Z"/>
      <path class="cls-5" d="M47.07,67.46c.06.1.03.23-.07.3h0s-.68.42-.68.42l-.53-.86.86-.53.42.68Z"/>
      <rect class="cls-5" x="45.45" y="66.11" width="1.01" height="1.01" transform="translate(-28.01 33.77) rotate(-31.46)"/>
      <rect class="cls-5" x="44.92" y="65.25" width="1.01" height="1.01" transform="translate(-27.64 33.37) rotate(-31.46)"/>
      <rect class="cls-5" x="44.4" y="64.38" width="1.01" height="1.01" transform="translate(-27.26 32.97) rotate(-31.46)"/>
      <rect class="cls-5" x="43.87" y="63.52" width="1.01" height="1.01" transform="translate(-26.89 32.57) rotate(-31.46)"/>
      <rect class="cls-5" x="43.34" y="62.66" width="1.01" height="1.01" transform="translate(-26.52 32.16) rotate(-31.46)"/>
      <rect class="cls-5" x="42.81" y="61.79" width="1.01" height="1.01" transform="translate(-26.14 31.76) rotate(-31.46)"/>
      <path class="cls-5" d="M42.21,61.45c-.06-.1-.03-.23.07-.3l-.18.11.11.18Z"/>
      <path class="cls-5" d="M42.51,61.95c.06.1.19.13.3.07l-.18.11-.11-.18Z"/>
      <path class="cls-5" d="M42.85,60.56c.06.1.03.23-.07.3h0s-.68.42-.68.42l-.53-.86.86-.53.42.68Z"/>
      <rect class="cls-5" x="41.23" y="59.2" width="1.01" height="1.01" transform="translate(-25.03 30.55) rotate(-31.46)"/>
      <path class="cls-5" d="M40.93,59.36l-.3-.5c-.06-.1-.03-.23.07-.3l.5-.3c.1-.06.23-.03.3.07l.42.68-.86.53-.11-.18Z"/>
      <path class="cls-5" d="M40.17,57.71c-.1.06-.23.03-.3-.07l-.3-.5c-.06-.1-.03-.23.07-.3l.68-.42.53.86-.68.42Z"/>
      <path class="cls-5" d="M40.21,56.24l.11.18-.18.11c.1-.06.13-.19.07-.3h0Z"/>
      <path class="cls-5" d="M39.61,55.68l.18-.11.11.18c-.06-.1-.19-.13-.3-.07Z"/>
      <path class="cls-5" d="M39.04,56.27c-.06-.1-.03-.23.07-.3l-.18.11.11.18Z"/>
      <rect class="cls-5" x="38.59" y="54.89" width="1.01" height="1.01" transform="translate(-23.16 28.54) rotate(-31.46)"/>
      <path class="cls-5" d="M38.29,55.05l-.3-.5c-.06-.1-.03-.23.07-.3l.5-.3c.1-.06.23-.03.3.07l.42.68-.86.53-.11-.18Z"/>
      <path class="cls-5" d="M38.02,53.09l.18-.11.11.18c-.06-.1-.19-.13-.3-.07Z"/>
      <path class="cls-5" d="M37.53,53.39c-.1.06-.23.03-.3-.07l-.3-.5c-.06-.1-.03-.23.07-.3l.68-.42.53.86-.68.42Z"/>
      <rect class="cls-5" x="35.95" y="50.58" width="1.01" height="1.01" rx=".21" ry=".21" transform="translate(-21.3 26.53) rotate(-31.46)"/>
      <path class="cls-5" d="M47.22,71.18c-.1.06-.23.03-.3-.07l-.42-.68.86-.53.53.86-.68.42Z"/>
      <rect class="cls-5" x="46.17" y="69.23" width="1.01" height="1.01" transform="translate(-29.53 34.61) rotate(-31.46)"/>
      <rect class="cls-5" x="45.65" y="68.36" width="1.01" height="1.01" transform="translate(-29.16 34.2) rotate(-31.46)"/>
      <path class="cls-5" d="M45.11,67.73c-.1.06-.13.19-.07.3l.42.68.86-.53-.53-.86-.68.42Z"/>
      <path class="cls-5" d="M45.68,67.13l.11.18-.18.11c.1-.06.13-.19.07-.3h0Z"/>
      <path class="cls-5" d="M44.02,64.83l.18-.11.11.18c-.06-.1-.19-.13-.3-.07Z"/>
      <path class="cls-5" d="M43.46,65.43c-.06-.1-.03-.23.07-.3l-.18.11.11.18Z"/>
      <rect class="cls-5" x="43.01" y="64.05" width="1.01" height="1.01" transform="translate(-27.29 32.19) rotate(-31.46)"/>
      <path class="cls-5" d="M43.57,63.67l.11.18-.18.11c.1-.06.13-.19.07-.3h0Z"/>
      <path class="cls-5" d="M42.97,63.11l.18-.11.11.18c-.06-.1-.19-.13-.3-.07Z"/>
      <rect class="cls-5" x="41.95" y="62.32" width="1.01" height="1.01" transform="translate(-26.55 31.39) rotate(-31.46)"/>
      <rect class="cls-5" x="41.42" y="61.46" width="1.01" height="1.01" transform="translate(-26.17 30.99) rotate(-31.46)"/>
      <rect class="cls-5" x="40.89" y="60.6" width="1.01" height="1.01" transform="translate(-25.8 30.58) rotate(-31.46)"/>
      <path class="cls-5" d="M41.46,60.22l.11.18-.18.11c.1-.06.13-.19.07-.3h0Z"/>
      <path class="cls-5" d="M39.3,58.23l.5-.3c.1-.06.23-.03.3.07l.3.5c.06.1.03.23-.07.3h0s-.68.42-.68.42l-.53-.86.18-.11Z"/>
      <path class="cls-5" d="M39.01,58.16c.06.1.19.13.3.07l-.18.11-.11-.18Z"/>
      <path class="cls-5" d="M39.04,56.27l.3.5c.06.1.03.23-.07.3h0s-.5.3-.5.3c-.1.06-.23.03-.3-.07l-.42-.68.86-.53.11.18Z"/>
      <path class="cls-5" d="M37.72,55.64c-.1.06-.13.19-.07.3l.42.68.86-.53-.53-.86-.68.42Z"/>
      <path class="cls-5" d="M38.29,55.05l.11.18-.18.11c.1-.06.13-.19.07-.3h0Z"/>
      <path class="cls-5" d="M46.33,70.54l.18-.11.11.18c-.06-.1-.19-.13-.3-.07Z"/>
      <path class="cls-5" d="M45.76,71.14c-.06-.1-.03-.23.07-.3l-.18.11.11.18Z"/>
      <rect class="cls-5" x="45.31" y="69.75" width="1.01" height="1.01" transform="translate(-29.93 34.23) rotate(-31.46)"/>
      <path class="cls-5" d="M45.87,69.38l.11.18-.18.11c.1-.06.13-.19.07-.3h0Z"/>
      <path class="cls-5" d="M44.18,68.55c-.06-.1-.03-.23.07-.3l-.18.11.11.18Z"/>
      <path class="cls-5" d="M43.72,67.39l.5-.3c.1-.06.23-.03.3.07l.3.5c.06.1.03.23-.07.3h0s-.68.42-.68.42l-.53-.86.18-.11Z"/>
      <path class="cls-5" d="M43.42,67.32c.06.1.19.13.3.07l-.18.11-.11-.18Z"/>
      <path class="cls-5" d="M43.46,65.43l.3.5c.06.1.03.23-.07.3h0s-.5.3-.5.3c-.1.06-.23.03-.3-.07l-.42-.68.86-.53.11.18Z"/>
      <rect class="cls-5" x="42.14" y="64.58" width="1.01" height="1.01" transform="translate(-27.69 31.82) rotate(-31.46)"/>
      <path class="cls-5" d="M41.84,64.73c.06.1.19.13.3.07l-.18.11-.11-.18Z"/>
      <path class="cls-5" d="M41.61,63.94c-.1.06-.23.03-.3-.07l-.3-.5c-.06-.1-.03-.23.07-.3l.68-.42.53.86-.68.42Z"/>
      <path class="cls-5" d="M41.65,62.48l.11.18-.18.11c.1-.06.13-.19.07-.3h0Z"/>
      <path class="cls-5" d="M41.05,61.91l.18-.11.11.18c-.06-.1-.19-.13-.3-.07Z"/>
      <path class="cls-5" d="M40.55,62.21c-.1.06-.23.03-.3-.07l-.3-.5c-.06-.1-.03-.23.07-.3l.68-.42.53.86-.68.42Z"/>
      <path class="cls-5" d="M38.97,59.62c-.1.06-.23.03-.3-.07l-.42-.68.86-.53.53.86-.68.42Z"/>
      <path class="cls-5" d="M38.15,58.69l-.3-.5c-.06-.1-.03-.23.07-.3l.5-.3c.1-.06.23-.03.3.07l.42.68-.86.53-.11-.18Z"/>
      <path class="cls-5" d="M36.79,56.47c-.06-.1-.03-.23.07-.3l-.18.11.11.18Z"/>
      <path class="cls-5" d="M37.43,55.57c.06.1.03.23-.07.3h0s-.68.42-.68.42l-.53-.86.86-.53.42.68Z"/>
      <rect class="cls-5" x="35.81" y="54.22" width="1.01" height="1.01" transform="translate(-23.22 26.99) rotate(-31.46)"/>
      <rect class="cls-5" x="35.28" y="53.36" width="1.01" height="1.01" transform="translate(-22.85 26.59) rotate(-31.46)"/>
      <path class="cls-5" d="M34.98,53.51l-.3-.5c-.06-.1-.03-.23.07-.3l.5-.3c.1-.06.23-.03.3.07l.42.68-.86.53-.11-.18Z"/>
      <path class="cls-5" d="M34.48,50.76l.3.5c.06.1.03.23-.07.3h0s-.5.3-.5.3c-.1.06-.23.03-.3-.07l-.42-.68.86-.53.11.18Z"/>
      <path class="cls-5" d="M33.4,50.92l-.3-.5c-.06-.1-.03-.23.07-.3l.5-.3c.1-.06.23-.03.3.07l.42.68-.86.53-.11-.18Z"/>
      <path class="cls-5" d="M46.06,71.63c.06.1.03.23-.07.3h0s-.68.42-.68.42l-.53-.86.86-.53.42.68Z"/>
      <path class="cls-5" d="M44.44,70.51c-.1.06-.13.19-.07.3l.42.68.86-.53-.53-.86-.68.42Z"/>
      <path class="cls-5" d="M44.18,68.55l.3.5c.06.1.03.23-.07.3h0s-.5.3-.5.3c-.1.06-.23.03-.3-.07l-.42-.68.86-.53.11.18Z"/>
      <rect class="cls-5" x="42.86" y="67.69" width="1.01" height="1.01" transform="translate(-29.21 32.65) rotate(-31.46)"/>
      <path class="cls-5" d="M43.12,66.82c-.06-.1-.19-.13-.3-.07l-.68.42.53.86.86-.53-.42-.68Z"/>
      <path class="cls-5" d="M42.3,65.89l.18-.11.11.18c-.06-.1-.19-.13-.3-.07Z"/>
      <path class="cls-5" d="M41.73,66.49c-.06-.1-.03-.23.07-.3l-.18.11.11.18Z"/>
      <path class="cls-5" d="M42.03,66.98c.06.1.19.13.3.07l-.18.11-.11-.18Z"/>
      <rect class="cls-5" x="41.28" y="65.1" width="1.01" height="1.01" transform="translate(-28.1 31.45) rotate(-31.46)"/>
      <path class="cls-5" d="M41.54,64.23c-.06-.1-.19-.13-.3-.07l-.68.42.53.86.86-.53-.42-.68Z"/>
      <path class="cls-5" d="M40.45,64.4c.06.1.19.13.3.07l-.18.11-.11-.18Z"/>
      <rect class="cls-5" x="39.7" y="62.51" width="1.01" height="1.01" rx=".21" ry=".21" transform="translate(-26.98 30.24) rotate(-31.46)"/>
      <rect class="cls-5" x="38.64" y="60.79" width="1.01" height="1.01" rx=".21" ry=".21" transform="translate(-26.23 29.44) rotate(-31.46)"/>
      <path class="cls-5" d="M37.31,57.33l.3.5c.06.1.03.23-.07.3h0s-.5.3-.5.3c-.1.06-.23.03-.3-.07l-.42-.68.86-.53.11.18Z"/>
      <rect class="cls-5" x="36" y="56.47" width="1.01" height="1.01" transform="translate(-24.37 27.42) rotate(-31.46)"/>
      <rect class="cls-5" x="35.47" y="55.61" width="1.01" height="1.01" transform="translate(-24 27.02) rotate(-31.46)"/>
      <rect class="cls-5" x="34.95" y="54.75" width="1.01" height="1.01" transform="translate(-23.62 26.62) rotate(-31.46)"/>
      <rect class="cls-5" x="34.42" y="53.89" width="1.01" height="1.01" transform="translate(-23.25 26.22) rotate(-31.46)"/>
      <path class="cls-5" d="M34.98,53.51l.11.18-.18.11c.1-.06.13-.19.07-.3h0Z"/>
      <rect class="cls-5" x="44.11" y="71.67" width="1.01" height="1.01" transform="translate(-31.11 33.89) rotate(-31.46)"/>
      <path class="cls-5" d="M44.67,71.3l.11.18-.18.11c.1-.06.13-.19.07-.3h0Z"/>
      <path class="cls-5" d="M43.05,70.17l.5-.3c.1-.06.23-.03.3.07l.3.5c.06.1.03.23-.07.3h0s-.68.42-.68.42l-.53-.86.18-.11Z"/>
      <path class="cls-5" d="M42.49,68.14l.18-.11.11.18c-.06-.1-.19-.13-.3-.07Z"/>
      <path class="cls-5" d="M41.99,68.45c-.1.06-.23.03-.3-.07l-.42-.68.86-.53.53.86-.68.42Z"/>
      <rect class="cls-5" x="40.95" y="66.49" width="1.01" height="1.01" transform="translate(-28.87 31.48) rotate(-31.46)"/>
      <rect class="cls-5" x="40.42" y="65.63" width="1.01" height="1.01" transform="translate(-28.5 31.07) rotate(-31.46)"/>
      <rect class="cls-5" x="39.89" y="64.77" width="1.01" height="1.01" transform="translate(-28.13 30.67) rotate(-31.46)"/>
      <path class="cls-5" d="M40.15,63.9c-.06-.1-.19-.13-.3-.07l-.68.42.53.86.86-.53-.42-.68Z"/>
      <path class="cls-5" d="M38.04,60.45l.3.5c.06.1.03.23-.07.3h0s-.5.3-.5.3c-.1.06-.23.03-.3-.07l-.42-.68.86-.53.11.18Z"/>
      <path class="cls-5" d="M37.51,59.58c-.06-.1-.19-.13-.3-.07l-.68.42.53.86.86-.53-.42-.68Z"/>
      <path class="cls-5" d="M36.16,57.79l.18-.11.11.18c-.06-.1-.19-.13-.3-.07Z"/>
      <rect class="cls-5" x="35.14" y="57" width="1.01" height="1.01" transform="translate(-24.77 27.05) rotate(-31.46)"/>
      <path class="cls-5" d="M34.6,56.36c-.1.06-.13.19-.07.3l.42.68.86-.53-.53-.86-.68.42Z"/>
      <path class="cls-5" d="M35.17,55.77l.11.18-.18.11c.1-.06.13-.19.07-.3h0Z"/>
      <path class="cls-5" d="M34.57,55.2l.18-.11.11.18c-.06-.1-.19-.13-.3-.07Z"/>
      <path class="cls-5" d="M34.08,55.5c-.1.06-.23.03-.3-.07l-.3-.5c-.06-.1-.03-.23.07-.3l.68-.42.53.86-.68.42Z"/>
      <path class="cls-5" d="M33.28,52.68l.3.5c.06.1.03.23-.07.3h0s-.5.3-.5.3c-.1.06-.23.03-.3-.07l-.42-.68.86-.53.11.18Z"/>
      <rect class="cls-5" x="31.97" y="51.82" width="1.01" height="1.01" transform="translate(-22.54 24.64) rotate(-31.46)"/>
      <path class="cls-5" d="M32.23,50.95c-.06-.1-.19-.13-.3-.07l-.68.42.53.86.86-.53-.42-.68Z"/>
      <rect class="cls-5" x="43.25" y="72.2" width="1.01" height="1.01" transform="translate(-31.51 33.52) rotate(-31.46)"/>
      <path class="cls-5" d="M42.72,71.56c-.1.06-.23.03-.3-.07l-.3-.5c-.06-.1-.03-.23.07-.3l.68-.42.53.86-.68.42Z"/>
      <path class="cls-5" d="M40.57,66.94l.18-.11.11.18c-.06-.1-.19-.13-.3-.07Z"/>
      <path class="cls-5" d="M40.08,67.25c-.1.06-.23.03-.3-.07l-.3-.5c-.06-.1-.03-.23.07-.3l.68-.42.53.86-.68.42Z"/>
      <path class="cls-5" d="M40.12,65.79l.11.18-.18.11c.1-.06.13-.19.07-.3h0Z"/>
      <path class="cls-5" d="M39.52,65.22l.18-.11.11.18c-.06-.1-.19-.13-.3-.07Z"/>
      <path class="cls-5" d="M39.02,65.52c-.1.06-.23.03-.3-.07l-.3-.5c-.06-.1-.03-.23.07-.3l.68-.42.53.86-.68.42Z"/>
      <path class="cls-5" d="M36.91,62.07l.5-.3c.1-.06.23-.03.3.07l.3.5c.06.1.03.23-.07.3h0s-.68.42-.68.42l-.53-.86.18-.11Z"/>
      <path class="cls-5" d="M36.88,60.9l.18-.11.11.18c-.06-.1-.19-.13-.3-.07Z"/>
      <path class="cls-5" d="M36.38,61.21c-.1.06-.23.03-.3-.07l-.3-.5c-.06-.1-.03-.23.07-.3l.68-.42.53.86-.68.42Z"/>
      <path class="cls-5" d="M34.73,58.91c-.06-.1-.03-.23.07-.3l-.18.11.11.18Z"/>
      <rect class="cls-5" x="34.28" y="57.53" width="1.01" height="1.01" transform="translate(-25.17 26.68) rotate(-31.46)"/>
      <path class="cls-5" d="M34.84,57.16l.11.18-.18.11c.1-.06.13-.19.07-.3h0Z"/>
      <path class="cls-5" d="M33.97,57.68c.06.1.19.13.3.07l-.18.11-.11-.18Z"/>
      <path class="cls-5" d="M32.13,53.14l.18-.11.11.18c-.06-.1-.19-.13-.3-.07Z"/>
      <path class="cls-5" d="M31.63,53.44c-.1.06-.23.03-.3-.07l-.42-.68.86-.53.53.86-.68.42Z"/>
      <rect class="cls-5" x="30.58" y="51.49" width="1.01" height="1.01" transform="translate(-22.56 23.86) rotate(-31.46)"/>
      <path class="cls-5" d="M42.91,73.82c-.1.06-.23.03-.3-.07l-.3-.5c-.06-.1-.03-.23.07-.3l.68-.42.53.86-.68.42Z"/>
      <rect class="cls-5" x="40.8" y="70.14" width="1.01" height="1.01" rx=".21" ry=".21" transform="translate(-30.79 31.94) rotate(-31.46)"/>
      <rect class="cls-5" x="39.22" y="67.55" width="1.01" height="1.01" rx=".21" ry=".21" transform="translate(-29.68 30.73) rotate(-31.46)"/>
      <path class="cls-5" d="M36.57,63.46c-.1.06-.23.03-.3-.07l-.3-.5c-.06-.1-.03-.23.07-.3l.68-.42.53.86-.68.42Z"/>
      <path class="cls-5" d="M35.25,59.78l.3.5c.06.1.03.23-.07.3h0s-.5.3-.5.3c-.1.06-.23.03-.3-.07l-.42-.68.86-.53.11.18Z"/>
      <rect class="cls-5" x="33.94" y="58.92" width="1.01" height="1.01" transform="translate(-25.95 26.71) rotate(-31.46)"/>
      <rect class="cls-5" x="33.41" y="58.06" width="1.01" height="1.01" transform="translate(-25.58 26.31) rotate(-31.46)"/>
      <rect class="cls-5" x="32.88" y="57.19" width="1.01" height="1.01" transform="translate(-25.2 25.9) rotate(-31.46)"/>
      <rect class="cls-5" x="32.36" y="56.33" width="1.01" height="1.01" transform="translate(-24.83 25.5) rotate(-31.46)"/>
      <rect class="cls-5" x="31.83" y="55.47" width="1.01" height="1.01" transform="translate(-24.46 25.1) rotate(-31.46)"/>
      <path class="cls-5" d="M31.53,55.62l-.3-.5c-.06-.1-.03-.23.07-.3l.5-.3c.1-.06.23-.03.3.07l.42.68-.86.53-.11-.18Z"/>
      <path class="cls-5" d="M30.73,52.8l.18-.11.11.18c-.06-.1-.19-.13-.3-.07Z"/>
      <rect class="cls-5" x="29.72" y="52.02" width="1.01" height="1.01" transform="translate(-22.97 23.49) rotate(-31.46)"/>
      <path class="cls-5" d="M37.29,66.58l.5-.3c.1-.06.23-.03.3.07l.3.5c.06.1.03.23-.07.3h0s-.68.42-.68.42l-.53-.86.18-.11Z"/>
      <path class="cls-5" d="M36.24,64.85l.5-.3c.1-.06.23-.03.3.07l.3.5c.06.1.03.23-.07.3h0s-.68.42-.68.42l-.53-.86.18-.11Z"/>
      <path class="cls-5" d="M35.94,64.78c.06.1.19.13.3.07l-.18.11-.11-.18Z"/>
      <path class="cls-5" d="M34.58,62.56c-.06-.1-.03-.23.07-.3l-.18.11.11.18Z"/>
      <path class="cls-5" d="M34.13,61.4l.5-.3c.1-.06.23-.03.3.07l.3.5c.06.1.03.23-.07.3h0s-.68.42-.68.42l-.53-.86.18-.11Z"/>
      <path class="cls-5" d="M34.1,60.23l.18-.11.11.18c-.06-.1-.19-.13-.3-.07Z"/>
      <rect class="cls-5" x="33.08" y="59.45" width="1.01" height="1.01" transform="translate(-26.35 26.34) rotate(-31.46)"/>
      <path class="cls-5" d="M33.64,59.08l.11.18-.18.11c.1-.06.13-.19.07-.3h0Z"/>
      <path class="cls-5" d="M31.98,56.78l.18-.11.11.18c-.06-.1-.19-.13-.3-.07Z"/>
      <rect class="cls-5" x="30.97" y="56" width="1.01" height="1.01" transform="translate(-24.86 24.73) rotate(-31.46)"/>
      <path class="cls-5" d="M31.53,55.62l.11.18-.18.11c.1-.06.13-.19.07-.3h0Z"/>
      <path class="cls-5" d="M29.3,53.93c-.06-.1-.03-.23.07-.3l-.18.11.11.18Z"/>
      <rect class="cls-5" x="28.85" y="52.54" width="1.01" height="1.01" transform="translate(-23.37 23.12) rotate(-31.46)"/>
      <path class="cls-5" d="M36.96,67.97c-.1.06-.23.03-.3-.07l-.3-.5c-.06-.1-.03-.23.07-.3l.68-.42.53.86-.68.42Z"/>
      <path class="cls-5" d="M35.9,66.24c-.1.06-.23.03-.3-.07l-.42-.68.86-.53.53.86-.68.42Z"/>
      <rect class="cls-5" x="34.85" y="64.29" width="1.01" height="1.01" transform="translate(-28.62 27.97) rotate(-31.46)"/>
      <rect class="cls-5" x="34.33" y="63.43" width="1.01" height="1.01" transform="translate(-28.24 27.57) rotate(-31.46)"/>
      <rect class="cls-5" x="33.8" y="62.57" width="1.01" height="1.01" transform="translate(-27.87 27.17) rotate(-31.46)"/>
      <rect class="cls-5" x="33.27" y="61.7" width="1.01" height="1.01" transform="translate(-27.5 26.77) rotate(-31.46)"/>
      <rect class="cls-5" x="32.21" y="59.98" width="1.01" height="1.01" transform="translate(-26.75 25.96) rotate(-31.46)"/>
      <rect class="cls-5" x="31.16" y="58.25" width="1.01" height="1.01" rx=".21" ry=".21" transform="translate(-26.01 25.16) rotate(-31.46)"/>
      <rect class="cls-5" x="30.1" y="56.52" width="1.01" height="1.01" transform="translate(-25.26 24.35) rotate(-31.46)"/>
      <path class="cls-5" d="M29.8,56.68c.06.1.19.13.3.07l-.18.11-.11-.18Z"/>
      <path class="cls-5" d="M29.83,54.79l.3.5c.06.1.03.23-.07.3h0s-.5.3-.5.3c-.1.06-.23.03-.3-.07l-.42-.68.86-.53.11.18Z"/>
      <rect class="cls-5" x="28.52" y="53.94" width="1.01" height="1.01" transform="translate(-24.14 23.15) rotate(-31.46)"/>
      <path class="cls-5" d="M27.99,53.3c-.1.06-.13.19-.07.3l.42.68.86-.53-.53-.86-.68.42Z"/>
      <rect class="cls-5" x="35.05" y="66.54" width="1.01" height="1.01" rx=".21" ry=".21" transform="translate(-29.76 28.41) rotate(-31.46)"/>
      <path class="cls-5" d="M35.01,65.6l.18-.11.11.18c-.06-.1-.19-.13-.3-.07Z"/>
      <rect class="cls-5" x="33.99" y="64.82" width="1.01" height="1.01" transform="translate(-29.02 27.6) rotate(-31.46)"/>
      <path class="cls-5" d="M34.55,64.45l.11.18-.18.11c.1-.06.13-.19.07-.3h0Z"/>
      <path class="cls-5" d="M33.69,64.97c.06.1.19.13.3.07l-.18.11-.11-.18Z"/>
      <path class="cls-5" d="M33.43,63.02l.18-.11.11.18c-.06-.1-.19-.13-.3-.07Z"/>
      <path class="cls-5" d="M32.93,63.32c-.1.06-.23.03-.3-.07l-.3-.5c-.06-.1-.03-.23.07-.3l.68-.42.53.86-.68.42Z"/>
      <rect class="cls-5" x="31.35" y="60.5" width="1.01" height="1.01" transform="translate(-27.16 25.59) rotate(-31.46)"/>
      <path class="cls-5" d="M31.05,60.66c.06.1.19.13.3.07l-.18.11-.11-.18Z"/>
      <path class="cls-5" d="M29.69,58.44c-.06-.1-.03-.23.07-.3l-.18.11.11.18Z"/>
      <rect class="cls-5" x="29.24" y="57.05" width="1.01" height="1.01" transform="translate(-25.66 23.98) rotate(-31.46)"/>
      <path class="cls-5" d="M29.5,56.18c-.06-.1-.19-.13-.3-.07l-.68.42.53.86.86-.53-.42-.68Z"/>
      <path class="cls-5" d="M34.71,68.16l.5-.3c.1-.06.23-.03.3.07l.3.5c.06.1.03.23-.07.3h0s-.68.42-.68.42l-.53-.86.18-.11Z"/>
      <path class="cls-5" d="M34.41,68.09c.06.1.19.13.3.07l-.18.11-.11-.18Z"/>
      <path class="cls-5" d="M33.65,66.44c-.1.06-.23.03-.3-.07l-.42-.68.86-.53.53.86-.68.42Z"/>
      <rect class="cls-5" x="32.6" y="64.48" width="1.01" height="1.01" transform="translate(-29.05 26.83) rotate(-31.46)"/>
      <path class="cls-5" d="M32.3,64.64l-.3-.5c-.06-.1-.03-.23.07-.3l.5-.3c.1-.06.23-.03.3.07l.42.68-.86.53-.11-.18Z"/>
      <path class="cls-5" d="M30.94,62.42c-.06-.1-.03-.23.07-.3l-.18.11.11.18Z"/>
      <rect class="cls-5" x="30.49" y="61.03" width="1.01" height="1.01" transform="translate(-27.56 25.22) rotate(-31.46)"/>
      <rect class="cls-5" x="29.96" y="60.17" width="1.01" height="1.01" transform="translate(-27.19 24.81) rotate(-31.46)"/>
      <rect class="cls-5" x="29.43" y="59.31" width="1.01" height="1.01" transform="translate(-26.81 24.41) rotate(-31.46)"/>
      <rect class="cls-5" x="28.9" y="58.44" width="1.01" height="1.01" transform="translate(-26.44 24.01) rotate(-31.46)"/>
      <rect class="cls-5" x="28.38" y="57.58" width="1.01" height="1.01" transform="translate(-26.07 23.61) rotate(-31.46)"/>
      <path class="cls-5" d="M27.84,56.94c-.1.06-.13.19-.07.3l.42.68.86-.53-.53-.86-.68.42Z"/>
      <rect class="cls-5" x="33.85" y="68.46" width="1.01" height="1.01" transform="translate(-30.94 28.06) rotate(-31.46)"/>
      <path class="cls-5" d="M34.11,67.59c-.06-.1-.19-.13-.3-.07l-.68.42.53.86.86-.53-.42-.68Z"/>
      <path class="cls-5" d="M33.02,67.76c.06.1.19.13.3.07l-.18.11-.11-.18Z"/>
      <path class="cls-5" d="M32.75,65.8l.18-.11.11.18c-.06-.1-.19-.13-.3-.07Z"/>
      <rect class="cls-5" x="31.74" y="65.01" width="1.01" height="1.01" transform="translate(-29.45 26.45) rotate(-31.46)"/>
      <path class="cls-5" d="M32.3,64.64l.11.18-.18.11c.1-.06.13-.19.07-.3h0Z"/>
      <path class="cls-5" d="M31.44,65.17c.06.1.19.13.3.07l-.18.11-.11-.18Z"/>
      <path class="cls-5" d="M30.94,62.42l.3.5c.06.1.03.23-.07.3h0s-.5.3-.5.3c-.1.06-.23.03-.3-.07l-.42-.68.86-.53.11.18Z"/>
      <path class="cls-5" d="M29.62,61.79c-.1.06-.13.19-.07.3l.42.68.86-.53-.53-.86-.68.42Z"/>
      <path class="cls-5" d="M30.19,61.19l.11.18-.18.11c.1-.06.13-.19.07-.3h0Z"/>
      <path class="cls-5" d="M29.59,60.62l.18-.11.11.18c-.06-.1-.19-.13-.3-.07Z"/>
      <path class="cls-5" d="M29.09,60.92c-.1.06-.23.03-.3-.07l-.3-.5c-.06-.1-.03-.23.07-.3l.68-.42.53.86-.68.42Z"/>
      <path class="cls-5" d="M29.13,59.46l.11.18-.18.11c.1-.06.13-.19.07-.3h0Z"/>
      <path class="cls-5" d="M28.53,58.89l.18-.11.11.18c-.06-.1-.19-.13-.3-.07Z"/>
      <rect class="cls-5" x="27.51" y="58.11" width="1.01" height="1.01" transform="translate(-26.47 23.24) rotate(-31.46)"/>
      <path class="cls-5" d="M28.08,57.74l.11.18-.18.11c.1-.06.13-.19.07-.3h0Z"/>
      <path class="cls-5" d="M26.72,55.51l.3.5c.06.1.03.23-.07.3h0s-.5.3-.5.3c-.1.06-.23.03-.3-.07l-.42-.68.86-.53.11.18Z"/>
      <path class="cls-5" d="M26.19,54.65c-.06-.1-.19-.13-.3-.07l-.68.42.53.86.86-.53-.42-.68Z"/>
      <rect class="cls-5" x="32.99" y="68.99" width="1.01" height="1.01" transform="translate(-31.34 27.69) rotate(-31.46)"/>
      <rect class="cls-5" x="32.46" y="68.13" width="1.01" height="1.01" transform="translate(-30.97 27.29) rotate(-31.46)"/>
      <path class="cls-5" d="M32.16,68.28l-.3-.5c-.06-.1-.03-.23.07-.3l.5-.3c.1-.06.23-.03.3.07l.42.68-.86.53-.11-.18Z"/>
      <rect class="cls-5" x="30.87" y="65.54" width="1.01" height="1.01" transform="translate(-29.85 26.08) rotate(-31.46)"/>
      <rect class="cls-5" x="30.35" y="64.68" width="1.01" height="1.01" transform="translate(-29.48 25.68) rotate(-31.46)"/>
      <path class="cls-5" d="M30.04,64.83l-.3-.5c-.06-.1-.03-.23.07-.3l.5-.3c.1-.06.23-.03.3.07l.42.68-.86.53-.11-.18Z"/>
      <path class="cls-5" d="M27.1,60.02c-.06-.1-.03-.23.07-.3l-.18.11.11.18Z"/>
      <rect class="cls-5" x="26.65" y="58.64" width="1.01" height="1.01" transform="translate(-26.87 22.86) rotate(-31.46)"/>
      <path class="cls-5" d="M26.35,58.79c.06.1.19.13.3.07l-.18.11-.11-.18Z"/>
      <rect class="cls-5" x="25.6" y="56.91" width="1.01" height="1.01" rx=".21" ry=".21" transform="translate(-26.13 22.06) rotate(-31.46)"/>
      <path class="cls-5" d="M25.56,55.97l.18-.11.11.18c-.06-.1-.19-.13-.3-.07Z"/>
      <path class="cls-5" d="M25.06,56.27c-.1.06-.23.03-.3-.07l-.3-.5c-.06-.1-.03-.23.07-.3l.68-.42.53.86-.68.42Z"/>
      <rect class="cls-5" x="32.12" y="69.52" width="1.01" height="1.01" transform="translate(-31.75 27.32) rotate(-31.46)"/>
      <path class="cls-5" d="M32.68,69.15l.11.18-.18.11c.1-.06.13-.19.07-.3h0Z"/>
      <path class="cls-5" d="M31.82,69.67c.06.1.19.13.3.07l-.18.11-.11-.18Z"/>
      <path class="cls-5" d="M30.53,67.16c-.1.06-.23.03-.3-.07l-.42-.68.86-.53.53.86-.68.42Z"/>
      <path class="cls-5" d="M29.48,65.43c-.1.06-.13.19-.07.3l.42.68.86-.53-.53-.86-.68.42Z"/>
      <path class="cls-5" d="M30.04,64.83l.11.18-.18.11c.1-.06.13-.19.07-.3h0Z"/>
      <path class="cls-5" d="M28.69,62.61l.3.5c.06.1.03.23-.07.3h0s-.5.3-.5.3c-.1.06-.23.03-.3-.07l-.42-.68.86-.53.11.18Z"/>
      <rect class="cls-5" x="27.37" y="61.75" width="1.01" height="1.01" transform="translate(-28.39 23.7) rotate(-31.46)"/>
      <rect class="cls-5" x="26.84" y="60.89" width="1.01" height="1.01" transform="translate(-28.02 23.29) rotate(-31.46)"/>
      <rect class="cls-5" x="26.32" y="60.03" width="1.01" height="1.01" transform="translate(-27.65 22.89) rotate(-31.46)"/>
      <rect class="cls-5" x="25.79" y="59.16" width="1.01" height="1.01" transform="translate(-27.27 22.49) rotate(-31.46)"/>
      <path class="cls-5" d="M25.49,59.32l-.3-.5c-.06-.1-.03-.23.07-.3l.5-.3c.1-.06.23-.03.3.07l.42.68-.86.53-.11-.18Z"/>
      <path class="cls-5" d="M24.65,57.96c-.06-.1-.03-.23.07-.3l-.18.11.11.18Z"/>
      <path class="cls-5" d="M24.2,56.8l.5-.3c.1-.06.23-.03.3.07l.3.5c.06.1.03.23-.07.3h0s-.68.42-.68.42l-.53-.86.18-.11Z"/>
      <path class="cls-5" d="M23.9,56.73c.06.1.19.13.3.07l-.18.11-.11-.18Z"/>
      <path class="cls-5" d="M31.78,71.14c-.1.06-.23.03-.3-.07l-.42-.68.86-.53.53.86-.68.42Z"/>
      <path class="cls-5" d="M30.96,70.2l-.3-.5c-.06-.1-.03-.23.07-.3l.5-.3c.1-.06.23-.03.3.07l.42.68-.86.53-.11-.18Z"/>
      <path class="cls-5" d="M28.88,64.86l.3.5c.06.1.03.23-.07.3h0s-.5.3-.5.3c-.1.06-.23.03-.3-.07l-.42-.68.86-.53.11.18Z"/>
      <path class="cls-5" d="M27.79,65.02l-.3-.5c-.06-.1-.03-.23.07-.3l.5-.3c.1-.06.23-.03.3.07l.42.68-.86.53-.11-.18Z"/>
      <path class="cls-5" d="M24.65,57.96l.3.5c.06.1.03.23-.07.3h0s-.5.3-.5.3c-.1.06-.23.03-.3-.07l-.42-.68.86-.53.11.18Z"/>
      <rect class="cls-5" x="23.34" y="57.1" width="1.01" height="1.01" transform="translate(-26.56 20.91) rotate(-31.46)"/>
      <path class="cls-5" d="M23.04,57.26l-.3-.5c-.06-.1-.03-.23.07-.3l.5-.3c.1-.06.23-.03.3.07l.42.68-.86.53-.11-.18Z"/>
      <path class="cls-5" d="M53.81,59.1c-.06-.1-.2-.13-.3-.07l-.68.42-.86.53-.86.53-.86.53-.86.53-.86.53-.68.42c-.1.06-.13.2-.07.3l3.47,5.67c.06.1.2.13.3.07l.68-.42.86-.53.86-.53.86-.53.86-.53.86-.53.68-.42c.1-.06.13-.2.07-.3,0,0-3.47-5.67-3.47-5.67ZM53.26,60.37c.06-.04.13-.02.17.04l2.51,4.1c.04.06.02.13-.04.17l-.76.46-.86.53-.86.53-.86.53-.76.46c-.06.04-.13.02-.17-.04l-2.51-4.1c-.04-.06-.02-.13.04-.17l.76-.46.86-.53.86-.53.86-.53.76-.46Z"/>
      <path class="cls-5" d="M51.3,62.75l.86-.53.68-.42c.1-.06.23-.03.3.07l1.36,2.22c.06.1.03.23-.07.3l-.68.42-.86.53-.68.42c-.1.06-.23.03-.3-.07l-1.36-2.22c-.06-.1-.03-.23.07-.3l.68-.42Z"/>
      <path class="cls-5" d="M44.31,43.56c-.06-.1-.2-.13-.3-.07l-.68.42-.86.53-.86.53-.86.53-.86.53-.86.53-.68.42c-.1.06-.13.2-.07.3l3.47,5.67c.06.1.2.13.3.07l.68-.42.86-.53.86-.53.86-.53.86-.53.86-.53.68-.42c.1-.06.13-.2.07-.3,0,0-3.47-5.67-3.47-5.67ZM43.76,44.84c.06-.04.13-.02.17.04l2.51,4.1c.04.06.02.13-.04.17l-.76.46-.86.53-.86.53-.86.53-.76.46c-.06.04-.13.02-.17-.04l-2.51-4.1c-.04-.06-.02-.13.04-.17l.76-.46.86-.53.86-.53.86-.53.76-.46Z"/>
      <path class="cls-5" d="M41.8,47.22l.86-.53.68-.42c.1-.06.23-.03.3.07l1.36,2.22c.06.1.03.23-.07.3l-.68.42-.86.53-.68.42c-.1.06-.23.03-.3-.07l-1.36-2.22c-.06-.1-.03-.23.07-.3l.68-.42Z"/>
      <path class="cls-5" d="M38.28,68.6c-.06-.1-.2-.13-.3-.07l-.68.42-.86.53-.86.53-.86.53-.86.53-.86.53-.68.42c-.1.06-.13.2-.07.3l3.47,5.67c.06.1.2.13.3.07l.68-.42.86-.53.86-.53.86-.53.86-.53.86-.53.68-.42c.1-.06.13-.2.07-.3,0,0-3.47-5.67-3.47-5.67ZM37.73,69.87c.06-.04.13-.02.17.04l2.51,4.1c.04.06.02.13-.04.17l-.76.46-.86.53-.86.53-.86.53-.76.46c-.06.04-.13.02-.17-.04l-2.51-4.1c-.04-.06-.02-.13.04-.17l.76-.46.86-.53.86-.53.86-.53.76-.46Z"/>
      <path class="cls-5" d="M35.77,72.25l.86-.53.68-.42c.1-.06.23-.03.3.07l1.36,2.22c.06.1.03.23-.07.3l-.68.42-.86.53-.68.42c-.1.06-.23.03-.3-.07l-1.36-2.22c-.06-.1-.03-.23.07-.3l.68-.42Z"/>
    </g>
    <g class="cls-10">
      <path class="cls-7" d="M113.94,160.58l2.51-.24c.15.84.46,1.46.92,1.86.46.4,1.09.59,1.87.59.83,0,1.46-.18,1.88-.53.42-.35.63-.76.63-1.23,0-.3-.09-.56-.27-.77-.18-.21-.49-.4-.93-.55-.3-.1-.99-.29-2.07-.56-1.38-.34-2.35-.76-2.91-1.26-.78-.7-1.18-1.56-1.18-2.57,0-.65.18-1.26.55-1.83.37-.57.9-1,1.6-1.3s1.53-.44,2.52-.44c1.6,0,2.81.35,3.62,1.06.81.7,1.24,1.64,1.28,2.82l-2.58.11c-.11-.66-.35-1.13-.71-1.42-.36-.29-.91-.43-1.64-.43s-1.34.15-1.76.46c-.27.2-.41.46-.41.79,0,.3.13.56.38.78.33.27,1.12.56,2.37.85,1.26.3,2.18.6,2.79.92.6.32,1.07.75,1.41,1.3.34.55.51,1.23.51,2.04,0,.73-.2,1.42-.61,2.06-.41.64-.98,1.11-1.73,1.43-.74.31-1.67.47-2.78.47-1.62,0-2.86-.37-3.72-1.12-.87-.75-1.38-1.84-1.55-3.27Z"/>
      <path class="cls-7" d="M128.32,158.31l-2.22-.4c.25-.9.68-1.56,1.29-1.99.61-.43,1.52-.65,2.72-.65,1.09,0,1.91.13,2.44.39.53.26.91.59,1.13.99.22.4.33,1.13.33,2.19l-.03,2.86c0,.81.04,1.41.12,1.8.08.39.23.8.44,1.24h-2.42c-.06-.16-.14-.4-.24-.72-.04-.15-.07-.24-.09-.29-.42.41-.87.71-1.34.92-.48.2-.99.31-1.53.31-.95,0-1.7-.26-2.25-.78-.55-.52-.82-1.17-.82-1.96,0-.52.12-.99.37-1.4.25-.41.6-.72,1.05-.94.45-.22,1.1-.41,1.95-.57,1.15-.22,1.94-.42,2.38-.6v-.24c0-.47-.12-.81-.35-1.01-.23-.2-.67-.3-1.32-.3-.44,0-.78.09-1.02.26s-.44.47-.59.9ZM131.42,154.35h-1.54l-2.41-2.61h2.75l1.2,2.61ZM131.59,160.29c-.31.1-.81.23-1.49.38s-1.12.29-1.33.43c-.32.23-.48.51-.48.86s.13.64.38.89c.26.25.58.38.98.38.44,0,.86-.15,1.26-.44.3-.22.49-.49.58-.81.06-.21.1-.61.1-1.19v-.49Z"/>
      <path class="cls-7" d="M144.84,164.74h-2.45v-4.73c0-1-.05-1.65-.16-1.94-.1-.29-.27-.52-.51-.68-.24-.16-.52-.24-.85-.24-.42,0-.81.12-1.14.35-.34.23-.57.54-.69.92s-.19,1.09-.19,2.13v4.19h-2.45v-9.26h2.28v1.36c.81-1.05,1.83-1.57,3.05-1.57.54,0,1.03.1,1.48.29.45.19.79.44,1.02.75.23.3.39.65.48,1.03s.14.93.14,1.65v5.76Z"/>
      <path class="cls-7" d="M158.25,160.04v-2.15h5.56v5.09c-.54.52-1.32.98-2.35,1.38s-2.07.6-3.12.6c-1.34,0-2.5-.28-3.5-.84-.99-.56-1.74-1.36-2.24-2.41-.5-1.04-.75-2.18-.75-3.41,0-1.33.28-2.51.84-3.55.56-1.03,1.37-1.83,2.45-2.38.82-.42,1.84-.64,3.06-.64,1.59,0,2.83.33,3.72,1,.89.67,1.47,1.59,1.72,2.76l-2.56.48c-.18-.63-.52-1.12-1.02-1.49-.5-.36-1.12-.55-1.86-.55-1.13,0-2.02.36-2.69,1.07-.67.71-1,1.78-1,3.18,0,1.52.34,2.66,1.01,3.41.67.76,1.56,1.14,2.65,1.14.54,0,1.08-.11,1.63-.32.54-.21,1.01-.47,1.4-.77v-1.62h-2.96Z"/>
      <path class="cls-7" d="M166.18,154.22v-2.27h2.45v2.27h-2.45ZM166.18,164.74v-9.26h2.45v9.26h-2.45Z"/>
      <path class="cls-7" d="M172.97,158.31l-2.22-.4c.25-.9.68-1.56,1.29-1.99s1.52-.65,2.72-.65c1.09,0,1.91.13,2.44.39.53.26.91.59,1.13.99.22.4.33,1.13.33,2.19l-.03,2.86c0,.81.04,1.41.12,1.8.08.39.23.8.44,1.24h-2.42c-.06-.16-.14-.4-.24-.72-.04-.15-.07-.24-.09-.29-.42.41-.87.71-1.34.92-.48.2-.99.31-1.53.31-.95,0-1.7-.26-2.25-.78-.55-.52-.82-1.17-.82-1.96,0-.52.12-.99.37-1.4.25-.41.6-.72,1.05-.94.45-.22,1.1-.41,1.95-.57,1.15-.22,1.94-.42,2.38-.6v-.24c0-.47-.12-.81-.35-1.01-.23-.2-.67-.3-1.32-.3-.44,0-.78.09-1.02.26s-.44.47-.59.9ZM176.25,160.29c-.31.1-.81.23-1.49.38s-1.12.29-1.33.43c-.32.23-.48.51-.48.86s.13.64.38.89c.26.25.58.38.98.38.44,0,.86-.15,1.26-.44.3-.22.49-.49.58-.81.06-.21.1-.61.1-1.19v-.49Z"/>
      <path class="cls-7" d="M180.51,159.98c0-.81.2-1.6.6-2.36.4-.76.97-1.34,1.7-1.74.74-.4,1.56-.6,2.46-.6,1.4,0,2.55.45,3.44,1.36s1.34,2.06,1.34,3.45-.45,2.56-1.36,3.48c-.9.92-2.04,1.38-3.41,1.38-.85,0-1.66-.19-2.43-.58-.77-.38-1.36-.95-1.76-1.69-.4-.74-.6-1.64-.6-2.71ZM183.02,160.11c0,.92.22,1.62.65,2.11s.97.73,1.61.73,1.18-.24,1.61-.73c.43-.49.65-1.2.65-2.13s-.22-1.6-.65-2.09c-.43-.49-.97-.73-1.61-.73s-1.18.24-1.61.73-.65,1.19-.65,2.11Z"/>
      <path class="cls-7" d="M196.95,151.96h4.72c1.06,0,1.87.08,2.43.24.75.22,1.39.61,1.93,1.18.53.56.94,1.25,1.22,2.07.28.82.42,1.82.42,3.02,0,1.05-.13,1.96-.39,2.72-.32.93-.78,1.68-1.37,2.26-.45.44-1.05.78-1.81,1.02-.57.18-1.33.27-2.28.27h-4.86v-12.78ZM199.54,154.12v8.47h1.93c.72,0,1.24-.04,1.56-.12.42-.1.77-.28,1.04-.53s.5-.66.68-1.23.26-1.35.26-2.34-.09-1.75-.26-2.28c-.17-.53-.42-.94-.73-1.24-.31-.3-.71-.5-1.19-.6-.36-.08-1.07-.12-2.12-.12h-1.16Z"/>
      <path class="cls-7" d="M209.84,154.22v-2.27h2.45v2.27h-2.45ZM209.84,164.74v-9.26h2.45v9.26h-2.45ZM209.85,168.24v-2.45h2.45v2.45h-2.45Z"/>
      <path class="cls-7" d="M222.88,158.22l-2.42.44c-.08-.48-.27-.85-.55-1.09-.29-.24-.66-.37-1.12-.37-.61,0-1.1.21-1.46.63-.36.42-.55,1.13-.55,2.11,0,1.1.18,1.88.55,2.33s.86.68,1.49.68c.47,0,.85-.13,1.14-.4.3-.26.51-.72.63-1.36l2.41.41c-.25,1.1-.73,1.94-1.44,2.5-.71.56-1.66.85-2.85.85-1.35,0-2.43-.43-3.24-1.28-.81-.85-1.21-2.04-1.21-3.55s.4-2.72,1.21-3.57c.81-.85,1.9-1.28,3.28-1.28,1.13,0,2.02.24,2.69.73.67.49,1.14,1.23,1.43,2.22Z"/>
      <path class="cls-7" d="M227.18,151.96v4.7c.79-.92,1.74-1.39,2.83-1.39.56,0,1.07.1,1.53.31.45.21.8.48,1.02.8.23.33.39.69.47,1.08.08.4.13,1.01.13,1.84v5.43h-2.45v-4.89c0-.97-.05-1.59-.14-1.85-.09-.26-.26-.47-.49-.62-.24-.15-.53-.23-.89-.23-.41,0-.77.1-1.09.3-.32.2-.55.5-.7.89-.15.4-.22.99-.22,1.77v4.64h-2.45v-12.78h2.45Z"/>
      <path class="cls-7" d="M243.5,164.74v-10.62h-3.79v-2.16h10.16v2.16h-3.78v10.62h-2.58Z"/>
      <path class="cls-7" d="M253.96,151.96v4.7c.79-.92,1.74-1.39,2.83-1.39.56,0,1.07.1,1.53.31.45.21.8.48,1.02.8.23.33.39.69.47,1.08.08.4.13,1.01.13,1.84v5.43h-2.45v-4.89c0-.97-.05-1.59-.14-1.85-.09-.26-.26-.47-.49-.62-.24-.15-.53-.23-.89-.23-.41,0-.77.1-1.09.3-.32.2-.55.5-.7.89-.15.4-.22.99-.22,1.77v4.64h-2.45v-12.78h2.45Z"/>
      <path class="cls-7" d="M271.63,155.48h2.45v1.75c0,.72-.06,1.29-.19,1.69s-.36.77-.69,1.09c-.52.5-1.32.84-2.4,1.01v3.71h-2.28v-1.39c-.73,1.06-1.75,1.6-3.07,1.6s-2.28-.52-2.75-1.56c-.22-.49-.33-1.18-.33-2.05v-5.86h2.45v4.26c0,1.22.05,2.02.14,2.39.06.28.23.51.49.7.24.17.54.26.91.26.41,0,.79-.11,1.12-.34.33-.23.56-.51.68-.85.12-.34.18-1.18.18-2.5v-3.91h2.45v4.55c.81-.16,1.38-.47,1.7-.91.2-.27.3-.67.31-1.19h-1.19v-2.45Z"/>
      <path class="cls-7" d="M284.32,155.48h2.45v1.75c0,.72-.06,1.29-.19,1.69-.13.41-.36.77-.69,1.09-.39.38-.92.67-1.6.89-.15,1.04-.58,1.93-1.3,2.66-.91.92-2.05,1.39-3.42,1.39-.88,0-1.69-.19-2.42-.58-.79-.41-1.38-.98-1.77-1.7-.4-.73-.59-1.63-.59-2.69,0-.84.2-1.62.6-2.36.42-.77.99-1.36,1.72-1.75.73-.4,1.54-.59,2.45-.59,1.4,0,2.55.45,3.44,1.36.81.83,1.25,1.85,1.33,3.06.76-.31,1.15-.9,1.17-1.76h-1.19v-2.45ZM277.3,160.11c0,.89.22,1.59.65,2.11.41.49.95.73,1.61.73s1.2-.24,1.6-.73c.44-.52.65-1.23.65-2.13s-.22-1.58-.65-2.09c-.41-.49-.94-.73-1.6-.73s-1.2.24-1.61.73c-.44.52-.65,1.22-.65,2.11Z"/>
      <path class="cls-7" d="M296.48,164.74h-2.45v-4.73c0-1-.05-1.65-.16-1.94-.1-.29-.27-.52-.51-.68-.24-.16-.52-.24-.85-.24-.42,0-.81.12-1.14.35s-.57.54-.69.92-.19,1.09-.19,2.13v4.19h-2.45v-9.26h2.28v1.36c.81-1.05,1.83-1.57,3.05-1.57.54,0,1.03.1,1.48.29.45.19.79.44,1.02.75.23.3.39.65.48,1.03s.14.93.14,1.65v5.76Z"/>
      <path class="cls-7" d="M298.74,165.35l2.8.34c.05.33.15.55.32.67.23.17.6.26,1.1.26.64,0,1.12-.1,1.44-.29.22-.13.38-.33.49-.62.08-.2.11-.58.11-1.13v-1.35c-.73,1-1.66,1.5-2.77,1.5-1.24,0-2.23-.53-2.96-1.58-.57-.83-.85-1.87-.85-3.1,0-1.55.37-2.74,1.12-3.56.75-.82,1.68-1.23,2.79-1.23s2.09.5,2.83,1.51v-1.3h2.29v8.31c0,1.09-.09,1.91-.27,2.45-.18.54-.43.97-.76,1.27-.33.31-.76.55-1.3.72-.54.17-1.23.26-2.06.26-1.57,0-2.68-.27-3.34-.81-.66-.54-.99-1.22-.99-2.05,0-.08,0-.18,0-.3ZM300.93,159.92c0,.98.19,1.7.57,2.16s.85.68,1.41.68c.6,0,1.1-.23,1.52-.7.41-.47.62-1.16.62-2.08s-.2-1.67-.59-2.14c-.4-.47-.9-.7-1.5-.7s-1.07.23-1.45.68c-.38.46-.57,1.15-.57,2.09Z"/>
      <path class="cls-7" d="M314.82,164.74v-12.78h3.86l2.32,8.72,2.29-8.72h3.87v12.78h-2.4v-10.06l-2.54,10.06h-2.49l-2.53-10.06v10.06h-2.4Z"/>
      <path class="cls-7" d="M331.55,158.31l-2.22-.4c.25-.9.68-1.56,1.29-1.99s1.52-.65,2.72-.65c1.09,0,1.91.13,2.44.39s.91.59,1.13.99c.22.4.33,1.13.33,2.19l-.03,2.86c0,.81.04,1.41.12,1.8.08.39.23.8.44,1.24h-2.42c-.06-.16-.14-.4-.24-.72-.04-.15-.07-.24-.09-.29-.42.41-.87.71-1.34.92-.48.2-.99.31-1.53.31-.95,0-1.7-.26-2.25-.78-.55-.52-.82-1.17-.82-1.96,0-.52.12-.99.37-1.4.25-.41.6-.72,1.05-.94.45-.22,1.1-.41,1.95-.57,1.15-.22,1.94-.42,2.38-.6v-.24c0-.47-.12-.81-.35-1.01-.23-.2-.67-.3-1.32-.3-.44,0-.78.09-1.02.26s-.44.47-.59.9ZM334.82,160.29c-.31.1-.81.23-1.49.38s-1.12.29-1.33.43c-.32.23-.48.51-.48.86s.13.64.38.89c.26.25.58.38.98.38.44,0,.86-.15,1.26-.44.3-.22.49-.49.58-.81.06-.21.1-.61.1-1.19v-.49ZM331.82,168.24v-2.45h2.45v2.45h-2.45Z"/>
      <path class="cls-7" d="M339.65,154.22v-2.27h2.45v2.27h-2.45ZM339.65,164.74v-9.26h2.45v9.26h-2.45Z"/>
      <path class="cls-7" d="M349.59,151.96h4.71c1.08,0,1.9.08,2.46.25.76.23,1.4.63,1.94,1.2.53.57.94,1.27,1.21,2.08.27.81.41,1.82.41,3.02,0,1.05-.15,2-.45,2.85-.3.85-.74,1.55-1.32,2.11-.45.42-1.05.76-1.81,1-.57.18-1.33.27-2.29.27h-4.85v-5.58h-1.33v-1.62h1.33v-5.58ZM352.16,154.12v3.42h2.74v1.62h-2.74v3.43h1.94c.85,0,1.47-.07,1.85-.21.5-.17.88-.49,1.14-.96.37-.66.55-1.66.55-3.01,0-.96-.08-1.7-.23-2.22-.15-.52-.38-.94-.68-1.26-.3-.32-.69-.54-1.17-.67-.37-.09-1.11-.14-2.22-.14h-1.17Z"/>
      <path class="cls-7" d="M362.47,154.22v-2.27h2.45v2.27h-2.45ZM362.47,164.74v-9.26h2.45v9.26h-2.45Z"/>
      <path class="cls-7" d="M372.79,161.79l2.44.41c-.31.9-.81,1.58-1.49,2.04-.68.47-1.52.7-2.54.7-1.61,0-2.8-.53-3.58-1.58-.61-.84-.92-1.91-.92-3.19,0-1.53.4-2.74,1.2-3.61.8-.87,1.82-1.3,3.04-1.3,1.38,0,2.46.45,3.26,1.36s1.18,2.3,1.14,4.18h-6.14c.02.73.21,1.29.59,1.7.38.4.85.61,1.41.61.38,0,.71-.1.97-.31s.46-.55.59-1.01ZM368.09,154.31l1.83-2.57h2.27l1.81,2.57h-1.97l-1.01-1.3-.94,1.3h-1.98ZM372.93,159.32c-.02-.71-.2-1.25-.55-1.62s-.77-.55-1.27-.55c-.54,0-.98.19-1.33.58s-.52.92-.51,1.59h3.66ZM369.88,168.24v-2.45h2.45v2.45h-2.45Z"/>
      <path class="cls-7" d="M385.79,164.74h-2.45v-4.73c0-1-.05-1.65-.16-1.94-.1-.29-.27-.52-.51-.68-.24-.16-.52-.24-.85-.24-.42,0-.81.12-1.14.35-.34.23-.57.54-.69.92s-.19,1.09-.19,2.13v4.19h-2.45v-9.26h2.28v1.36c.81-1.05,1.83-1.57,3.05-1.57.54,0,1.03.1,1.48.29.45.19.79.44,1.02.75.23.3.39.65.48,1.03.09.38.14.93.14,1.65v5.76Z"/>
      <path class="cls-7" d="M396.13,164.74v-10.62h-3.79v-2.16h10.16v2.16h-3.78v10.62h-2.58Z"/>
      <path class="cls-7" d="M413.34,155.48h2.45v1.75c0,.72-.06,1.29-.19,1.69s-.36.77-.69,1.09c-.52.5-1.32.84-2.4,1.01v3.71h-2.28v-1.39c-.73,1.06-1.75,1.6-3.07,1.6s-2.28-.52-2.75-1.56c-.22-.49-.33-1.18-.33-2.05v-5.86h2.45v4.26c0,1.22.05,2.02.14,2.39.06.28.23.51.49.7.24.17.54.26.91.26.41,0,.79-.11,1.12-.34.33-.23.56-.51.68-.85.12-.34.18-1.18.18-2.5v-3.91h2.45v4.55c.81-.16,1.38-.47,1.7-.91.2-.27.3-.67.31-1.19h-1.19v-2.45ZM408.5,153.29c.31-.08.47-.21.47-.4,0-.13-.08-.25-.24-.34-.24-.13-.63-.2-1.16-.2-.18,0-.45.01-.82.03l-.1-.89c.23-.05.65-.07,1.26-.06.72,0,1.3.12,1.75.35.5.24.76.58.77,1.02.02.6-.51.97-1.59,1.11v.44h-.98v-.96c.33-.03.54-.07.64-.1Z"/>
    </g>
    <path class="cls-1" d="M121.42,112.52l.23,2.97c1.77-2.35,4.09-3.52,6.96-3.52,5.17,0,7.83,3.62,7.97,10.86v19.75h-7.88v-19.17c0-1.7-.25-2.93-.76-3.69-.51-.77-1.4-1.16-2.68-1.16-1.43,0-2.53.73-3.33,2.19v21.83h-7.9v-30.05h7.39Z"/>
    <path class="cls-1" d="M157,139.83c-1.63,2.2-3.82,3.3-6.55,3.3s-4.86-.95-6.28-2.85c-1.43-1.9-2.14-4.66-2.14-8.28v-19.48h7.87v19.66c.03,2.93,1,4.39,2.92,4.39,1.79,0,3.09-.78,3.88-2.34v-21.71h7.91v30.05h-7.37l-.23-2.75Z"/>
    <path class="cls-1" d="M177.6,112.52l.23,2.77c1.76-2.22,4.08-3.33,6.96-3.33s5.12,1.35,6.36,4.05c1.73-2.7,4.18-4.05,7.36-4.05,5.25,0,7.95,3.64,8.08,10.91v19.69h-7.86v-19.19c0-1.73-.24-2.97-.72-3.71-.48-.74-1.3-1.12-2.45-1.12-1.46,0-2.55.9-3.27,2.69l.06.95v20.38h-7.86v-19.14c0-1.72-.24-2.96-.71-3.72-.46-.77-1.28-1.16-2.46-1.16-1.35,0-2.43.73-3.23,2.19v21.83h-7.86v-30.05h7.36Z"/>
    <path class="cls-3" d="M235.83,128.52c0,4.87-.78,8.52-2.34,10.96-1.56,2.43-4,3.65-7.33,3.65-2.6,0-4.7-1.17-6.27-3.52l-.25,2.97h-7.25v-42.66h7.86v15.06c1.48-2,3.43-3,5.86-3,3.33,0,5.78,1.21,7.33,3.62,1.56,2.42,2.35,5.96,2.39,10.62v2.31ZM227.97,126.55c0-3.17-.31-5.29-.92-6.37-.62-1.08-1.68-1.63-3.2-1.63-1.64,0-2.85.75-3.61,2.25v13.69c.71,1.41,1.93,2.11,3.67,2.11,1.5,0,2.54-.49,3.13-1.47.58-.98.9-2.89.93-5.72v-2.86Z"/>
    <path class="cls-3" d="M254.83,142.57c-.23-.46-.45-1.24-.68-2.34-1.41,1.93-3.31,2.89-5.72,2.89s-4.61-.83-6.27-2.49c-1.65-1.67-2.48-3.83-2.48-6.47,0-3.15,1-5.58,3.01-7.3,2.01-1.73,4.9-2.61,8.68-2.65h2.39v-2.42c0-1.35-.23-2.3-.69-2.85-.46-.56-1.14-.84-2.02-.84-1.96,0-2.94,1.15-2.94,3.44h-7.87c0-2.77,1.04-5.06,3.13-6.86,2.08-1.81,4.72-2.72,7.9-2.72s5.85.86,7.66,2.58c1.8,1.71,2.7,4.15,2.7,7.33v14.14c.04,2.6.41,4.62,1.12,6.09v.47h-7.91ZM250.19,136.97c.87,0,1.61-.17,2.22-.52.61-.36,1.07-.78,1.36-1.26v-6.24h-1.88c-1.34,0-2.4.42-3.17,1.27-.76.85-1.15,1.99-1.15,3.41,0,2.23.87,3.34,2.62,3.34Z"/>
    <path class="cls-4" d="M275.57,142.57h-7.88v-42.66h7.88v42.66Z"/>
    <path class="cls-4" d="M295.93,142.57c-.23-.46-.45-1.24-.68-2.34-1.41,1.93-3.31,2.89-5.72,2.89s-4.61-.83-6.27-2.49c-1.65-1.67-2.48-3.83-2.48-6.47,0-3.15,1-5.58,3.01-7.3,2.01-1.73,4.9-2.61,8.68-2.65h2.39v-2.42c0-1.35-.23-2.3-.69-2.85-.46-.56-1.14-.84-2.02-.84-1.96,0-2.94,1.15-2.94,3.44h-7.87c0-2.77,1.04-5.06,3.13-6.86,2.08-1.81,4.72-2.72,7.9-2.72s5.85.86,7.66,2.58c1.8,1.71,2.7,4.15,2.7,7.33v14.14c.04,2.6.41,4.62,1.12,6.09v.47h-7.91ZM291.28,136.97c.87,0,1.61-.17,2.22-.52.61-.36,1.07-.78,1.36-1.26v-6.24h-1.88c-1.34,0-2.4.42-3.17,1.27-.76.85-1.15,1.99-1.15,3.41,0,2.23.87,3.34,2.62,3.34Z"/>
    <path class="cls-5" d="M309.05,138.57c0-1.25.42-2.29,1.26-3.1.85-.82,1.95-1.23,3.3-1.23s2.4.41,3.27,1.22c.88.8,1.32,1.84,1.32,3.11s-.45,2.35-1.33,3.14c-.88.79-1.96,1.17-3.26,1.17s-2.4-.4-3.27-1.19c-.86-.8-1.29-1.84-1.29-3.13Z"/>
    <path class="cls-5" d="M335.82,136.6c2.28,0,3.44-1.48,3.47-4.44h7.39c-.04,3.28-1.05,5.94-3.03,7.95-1.97,2.01-4.53,3.01-7.66,3.01-3.87,0-6.82-1.2-8.86-3.61s-3.08-5.95-3.11-10.63v-2.39c0-4.72,1-8.32,3.01-10.8,2.01-2.48,4.98-3.72,8.9-3.72,3.31,0,5.92,1.03,7.83,3.07,1.9,2.05,2.88,4.95,2.92,8.71h-7.39c-.02-1.69-.3-2.99-.84-3.89-.53-.91-1.42-1.36-2.66-1.36-1.37,0-2.35.49-2.94,1.46-.59.97-.91,2.86-.93,5.65v3.06c0,2.45.12,4.15.35,5.12.24.97.64,1.68,1.19,2.14.56.45,1.34.68,2.36.68Z"/>
    <path class="cls-5" d="M350.2,126.58c0-4.56,1.07-8.13,3.21-10.71,2.15-2.59,5.13-3.89,8.93-3.89s6.82,1.3,8.96,3.89c2.15,2.59,3.23,6.18,3.23,10.77v1.91c0,4.58-1.07,8.15-3.2,10.73-2.12,2.57-5.1,3.85-8.93,3.85s-6.85-1.29-8.99-3.86c-2.14-2.58-3.21-6.17-3.21-10.77v-1.91ZM358.1,128.54c0,5.37,1.43,8.05,4.3,8.05,2.64,0,4.07-2.24,4.27-6.72l.03-3.3c0-2.74-.38-4.76-1.15-6.09-.76-1.33-1.83-2-3.21-2s-2.39.67-3.13,2c-.75,1.32-1.12,3.35-1.12,6.09v1.97Z"/>
    <path class="cls-5" d="M386.81,112.52l.23,2.77c1.76-2.22,4.08-3.33,6.96-3.33s5.12,1.35,6.36,4.05c1.73-2.7,4.18-4.05,7.36-4.05,5.25,0,7.95,3.64,8.08,10.91v19.69h-7.86v-19.19c0-1.73-.24-2.97-.72-3.71-.48-.74-1.3-1.12-2.45-1.12-1.46,0-2.55.9-3.27,2.69l.06.95v20.38h-7.86v-19.14c0-1.72-.24-2.96-.71-3.72-.46-.77-1.28-1.16-2.46-1.16-1.35,0-2.43.73-3.23,2.19v21.83h-7.86v-30.05h7.36Z"/>
  </g>
</svg>